<?xml version="1.0" encoding="utf-8"?>
<svg xmlns="http://www.w3.org/2000/svg" fill="none" height="53" viewBox="0 0 158 53" width="158">
<path d="M91.0036 19.1515C92.3943 13.5646 89.0031 8.94141 80.6959 8.94141H62.691L55.9453 36.2659L59.861 42.9873H72.6694C81.0619 42.9873 87.5637 39.0716 89.2349 32.2648C90.0766 28.7761 89.1007 26.3364 86.905 25.1165V25.0312C88.9872 23.6823 90.4584 21.5718 91.0036 19.1515ZM80.025 32.0453C79.6835 33.4725 78.7198 34.9363 74.7309 34.9363H66.558L67.9852 29.081H76.1215C80.0616 29.0688 80.3544 30.5692 79.9762 32.0453H80.025ZM81.6596 19.3345C81.3669 20.4323 80.5252 21.7742 77.0852 21.7742H69.7661L70.986 17.0168H78.3051C81.7816 16.9924 81.9524 18.1146 81.6596 19.3345Z" fill="#0098FF"/>
<path d="M102.341 29.8007H118.735L120.602 21.7498H104.317L105.585 16.9924H121.712L123.578 8.94141H97.1074L88.7148 42.9751H118.699L120.663 34.9241H101.133L102.341 29.8007Z" fill="#0098FF"/>
<path d="M125.867 8.94141L123.988 16.9924H133.784L127.355 42.9751H137.638L144.079 16.9924H154.57L156.583 8.94141H125.867Z" fill="#0098FF"/>
<path d="M11.7395 42.9751H1.37082L5.85985 24.7994L6.89671 22.0547L4.15206 24.7994L1.10245 27.8856L0.980469 18.8099L11.7395 8.94141H20.1198L11.7395 42.9751Z" fill="white"/>
<path d="M49.1791 28.8737L45.8734 23.2746L61.9143 8.94141H46.9712L40.872 14.7967L20.1834 33.7652L10.2539 42.9751H24.3919L35.0167 33.4969L38.5909 39.5961C39.8107 41.1331 41.5307 42.9995 48.8254 42.9995H57.3643L49.1913 28.8615L49.1791 28.8737Z" fill="white"/>
<path d="M39.7214 12.9184V12.8453C38.8061 11.5684 37.5849 10.5419 36.1697 9.85983C34.7544 9.17779 33.1906 8.86211 31.6216 8.94175H20.582L28.816 22.9456L39.7214 12.9184Z" fill="white"/>
</svg>