<?xml version="1.0" encoding="utf-8"?>
<svg xmlns="http://www.w3.org/2000/svg" fill="none" height="53" viewBox="0 0 158 53" width="158">
<path d="M6.36866 8.76172H1L6.36866 21.8478L10.7307 19.499L6.36866 8.76172Z" fill="black"/>
<path d="M14.4217 18.1569L19.4548 8.76172L22.8102 16.1436L14.4217 18.1569Z" fill="black"/>
<path d="M36.9029 8.76172H31.1987L29.521 14.8015L34.8897 13.4593L36.9029 8.76172Z" fill="black"/>
<path d="M11.4018 35.9412C9.16488 33.8161 7.03978 28.4922 16.4349 24.1973L11.4018 35.9412Z" fill="black"/>
<path d="M22.1391 26.5452C19.4548 21.9818 32.2054 18.1566 38.9162 16.8145C37.2385 17.5974 33.6146 19.4988 32.5409 20.841C31.4672 22.1831 27.8433 31.019 26.1656 35.2692C24.555 32.3165 22.8102 28.2229 22.1391 26.5452Z" fill="black"/>
<path d="M23.1458 19.4992C6.23452 24.8678 5.13842 30.6839 6.70428 32.9208C2.67778 31.0418 3.46071 27.2166 4.35549 25.5389C8.38198 19.6334 29.5211 16.3674 39.5873 15.4727L23.1458 19.4992Z" fill="#FF0000"/>
<path d="M49.9891 19.1629H42.6072V35.6045H49.9891V19.1629Z" fill="black"/>
<path d="M61.062 15.472H54.3511V35.6045H61.733V23.8602C64.9542 19.8337 67.9965 22.1825 69.115 23.8602V35.6045H75.8258V20.1696C70.1887 12.385 63.6344 15.1364 61.062 17.4852V15.472Z" fill="black"/>
<path d="M104.682 12.7886L100.32 17.1506C98.9781 13.7946 95.2871 13.7946 94.2805 13.7946C85.9591 14.5999 86.2275 21.5121 87.2342 24.8675C90.7238 32.1152 97.4122 29.2296 100.32 26.8808L104.682 31.2428C94.4818 39.2958 85.4445 34.5982 82.201 31.2428C81.5299 31.9139 73.1414 16.144 85.5564 10.1042C95.4884 5.27243 102.445 9.88053 104.682 12.7886Z" fill="black"/>
<path d="M156.356 17.7286L152.961 21.0059C151.917 18.4845 149.045 18.4845 148.262 18.4845C141.786 19.0895 141.995 24.2828 142.779 26.8038C145.494 32.2492 150.699 30.0811 152.961 28.3164L156.356 31.5937C148.418 37.6441 141.386 34.1147 138.862 31.5937C138.34 32.0979 131.813 20.2496 141.473 15.7118C149.202 12.0816 154.615 15.5437 156.356 17.7286Z" fill="black"/>
<path d="M114.413 15.4735H107.367V35.2702H114.413V24.1974C116.024 20.9762 119.558 20.8419 121.124 21.1775V15.4735C118.708 14.9366 115.643 16.8157 114.413 17.8223V15.4735Z" fill="black"/>
<path d="M123.387 16.815H123.137C123.181 16.7708 123.269 16.7745 123.387 16.815H134.881C133.875 17.3742 131.861 18.6269 131.861 19.1638V33.592C132.197 34.1513 133.069 35.2698 133.875 35.2698H123.808C124.591 35.0461 126.157 34.5316 126.157 34.2631V18.8282C125.41 18.1741 123.991 17.0205 123.387 16.815Z" fill="black"/>
<path d="M127.499 12.7882C127.231 11.7145 128.282 9.6565 128.841 8.76172C130.184 8.76172 130.519 13.7948 130.519 13.1238C130.519 12.5869 132.085 11.3342 132.868 10.775C133.136 12.1171 132.309 13.5711 131.861 14.1304H125.486C124.479 13.1238 125.151 9.4328 125.151 10.775C125.151 12.1171 127.835 14.1304 127.499 12.7882Z" fill="#FF0000"/>
<rect fill="#FF0000" height="8.72408" width="23.4879" x="132.868" y="36.2754"/>
<path d="M150.912 44.3292C150.427 44.3292 150.185 44.2187 150.185 43.9977V38.3206H148.269C148.143 38.3206 148.05 38.2792 147.991 38.1963C147.937 38.1135 147.909 37.9793 147.909 37.7938V37.4741C147.909 37.2886 147.937 37.1545 147.991 37.0716C148.05 36.9887 148.143 36.9473 148.269 36.9473H153.982C154.109 36.9473 154.2 36.9887 154.254 37.0716C154.313 37.1545 154.342 37.2886 154.342 37.4741V37.7938C154.342 37.9793 154.313 38.1135 154.254 38.1963C154.2 38.2792 154.109 38.3206 153.982 38.3206H152.06V43.9977C152.06 44.2187 151.818 44.3292 151.333 44.3292H150.912Z" fill="white"/>
<path d="M142.523 44.3114C142.355 44.3114 142.233 44.2779 142.156 44.2108C142.079 44.1437 142.041 44.0371 142.041 43.8911V37.3616C142.041 37.2156 142.079 37.111 142.156 37.0479C142.233 36.9808 142.355 36.9473 142.523 36.9473H146.945C147.072 36.9473 147.162 36.9887 147.217 37.0716C147.276 37.1545 147.305 37.2886 147.305 37.4741V37.7938C147.305 37.9793 147.276 38.1135 147.217 38.1963C147.162 38.2792 147.072 38.3206 146.945 38.3206H143.902V39.8479H146.619C146.746 39.8479 146.836 39.8894 146.891 39.9723C146.949 40.0551 146.979 40.1893 146.979 40.3748V40.7004C146.979 40.8859 146.949 41.02 146.891 41.1029C146.836 41.1858 146.746 41.2272 146.619 41.2272H143.902V42.9321H146.952C147.079 42.9321 147.169 42.9736 147.223 43.0564C147.282 43.1393 147.312 43.2715 147.312 43.4531V43.7846C147.312 43.97 147.282 44.1042 147.223 44.1871C147.169 44.27 147.079 44.3114 146.952 44.3114H142.523Z" fill="white"/>
<path d="M135.363 44.3114C135.196 44.3114 135.073 44.2779 134.996 44.2108C134.919 44.1437 134.881 44.0371 134.881 43.8911V37.3616C134.881 37.2156 134.919 37.111 134.996 37.0479C135.073 36.9808 135.196 36.9473 135.363 36.9473H137.754C138.732 36.9473 139.452 37.113 139.914 37.4445C140.376 37.7721 140.607 38.2259 140.607 38.8061C140.607 39.1534 140.483 39.473 140.234 39.7651C139.985 40.0571 139.672 40.2702 139.296 40.4044L139.31 40.4458C139.627 40.5011 139.908 40.6136 140.152 40.7833C140.401 40.953 140.594 41.1601 140.729 41.4048C140.87 41.6495 140.94 41.906 140.94 42.1744C140.94 42.865 140.689 43.3939 140.186 43.7609C139.683 44.1279 138.929 44.3114 137.924 44.3114H135.363ZM137.571 39.8775C137.924 39.8775 138.198 39.8045 138.393 39.6585C138.592 39.5085 138.692 39.3191 138.692 39.0902C138.692 38.5693 138.325 38.3088 137.591 38.3088H136.742V39.8775H137.571ZM137.924 42.9321C138.273 42.9321 138.544 42.8591 138.739 42.7131C138.934 42.5631 139.031 42.352 139.031 42.0797C139.031 41.8113 138.918 41.6081 138.692 41.4699C138.47 41.3318 138.148 41.2628 137.727 41.2628H136.742V42.9321H137.924Z" fill="white"/>
</svg>