<?xml version="1.0" encoding="utf-8"?>
<svg xmlns="http://www.w3.org/2000/svg" fill="none" height="53" viewBox="0 0 158 53" width="158">
<path d="M32.2014 19.6557C33.7112 18.0312 37.2339 16.2442 39.2469 22.0924L32.2014 19.6557Z" fill="#FF0001"/>
<path d="M38.7433 23.6009L31.1946 23.0977C31.1946 23.9029 31.5301 24.4396 31.6978 24.6074C34.2141 27.6269 38.0723 25.2784 38.7433 23.6009Z" fill="#FF0001"/>
<path d="M39.2467 22.5944L31.698 20.0781V22.0911L38.2402 23.0976L39.2467 22.5944Z" fill="#FF0001"/>
<path d="M14.5877 27.1236V33.1625C12.0714 32.324 7.54221 32.157 7.54221 36.1829C7.54221 40.6298 12.4069 40.3765 14.5877 39.7055V44.7373C9.89069 46.247 0.999891 44.7389 1 36.1829C1.00011 27.6269 10.2262 26.4526 14.5877 27.1236Z" fill="#FF0001"/>
<path d="M53.8408 27.1236V33.1625C51.3246 32.324 46.7954 32.157 46.7954 36.1829C46.7954 40.6298 51.6601 40.3765 53.8408 39.7055V44.7373C49.1439 46.247 40.2531 44.7389 40.2532 36.1829C40.2533 27.6269 49.4794 26.4526 53.8408 27.1236Z" fill="#FF0001"/>
<path d="M23.1427 27.6292H17.1038V45.2421H24.1492V34.6739C24.1492 33.8687 27.5042 34.3384 29.1817 34.6739V27.6292C28.3765 26.824 25.1557 28.3002 23.646 29.139L23.1427 27.6292Z" fill="#FF0001"/>
<path d="M38.2402 28.1309H31.698V45.2412H38.2402V28.1309Z" fill="#FF0001"/>
<path clip-rule="evenodd" d="M57.8667 18.5684H64.4089V28.6333C68.0994 26.9558 75.6816 25.9158 76.4868 35.1755C76.7056 37.6917 74.9771 47.2534 64.4089 43.7307H63.4024V45.2404H57.8667V18.5684ZM67.9316 40.2075C69.8772 40.2075 71.4544 38.6303 71.4544 36.6848C71.4544 34.7392 69.8772 33.162 67.9316 33.162C65.9861 33.162 64.4089 34.7392 64.4089 36.6848C64.4089 38.6303 65.9861 40.2075 67.9316 40.2075Z" fill="black" fill-rule="evenodd"/>
<path d="M79.5066 28.1309H84.5391V39.7055C85.476 40.3301 87.8083 41.1873 90.0748 40.0039C90.2354 39.8985 90.4068 39.7862 90.5767 39.675L90.0748 28.1309H95.6105V44.738H90.578V43.2283C88.7328 44.9058 82.3248 47.0529 79.5066 42.2218V28.1309Z" fill="black"/>
<path d="M98.6299 33.1633L99.6364 28.1309H112.218V33.1633L105.675 39.7055H113.727L111.211 44.738H98.6299V39.7055L104.166 33.1633H98.6299Z" fill="black"/>
<path d="M115.74 33.1633L116.747 28.1309H129.328V33.1633L122.786 39.7055H130.838L128.321 44.738H115.74V39.7055L121.276 33.1633H115.74Z" fill="black"/>
<path d="M125.302 16.052C110.406 17.6623 108.024 11.355 108.695 8C103.059 21.6883 62.7317 24.7749 43.2727 24.6071C88.7662 28.2305 116.915 20.4134 125.302 16.052Z" fill="black"/>
<path d="M150.096 45.1796L150.095 45.1793C149.594 45.0642 149.195 44.9122 148.903 44.7199L148.901 44.719C148.611 44.521 148.44 44.2892 148.44 44.0202C148.44 43.8893 148.498 43.7111 148.597 43.4954C148.598 43.4952 148.598 43.4951 148.598 43.4949L148.688 43.5368C148.787 43.3156 148.905 43.1197 149.041 42.949L150.096 45.1796ZM150.096 45.1796C150.599 45.2888 151.157 45.343 151.769 45.343C152.504 45.343 153.197 45.2178 153.846 44.9666L153.847 44.9664C154.508 44.7066 155.049 44.287 155.468 43.7092L155.469 43.7088C155.892 43.1189 156.1 42.367 156.1 41.4608C156.1 40.0686 155.737 39.0589 154.986 38.4631C154.25 37.8685 153.201 37.5785 151.852 37.5785H151.533M150.096 45.1796L151.533 37.5785M151.533 37.5785L151.686 35.3708H154.923C155.117 35.3708 155.277 35.3099 155.376 35.1681C155.475 35.0346 155.515 34.838 155.515 34.5978V34.1523C155.515 33.8519 155.475 33.6144 155.381 33.4573C155.286 33.2891 155.126 33.2086 154.923 33.2086H150.062C149.81 33.2086 149.604 33.264 149.472 33.3987C149.341 33.5254 149.279 33.7227 149.266 33.9664C149.266 33.9665 149.266 33.9667 149.266 33.9669L148.951 38.9804L148.95 38.9804V38.9867C148.95 39.2336 148.994 39.4346 149.104 39.5636C149.22 39.6991 149.42 39.7502 149.663 39.7502H151.453C152.179 39.7502 152.672 39.9067 152.96 40.1949L152.961 40.1955C153.257 40.4866 153.413 40.9244 153.413 41.5271C153.413 42.0501 153.262 42.4484 152.97 42.7351C152.678 43.0162 152.275 43.1619 151.75 43.1619C151.349 43.1619 150.997 43.1184 150.692 43.0329C150.387 42.9457 150.079 42.8367 149.768 42.7057L151.533 37.5785Z" fill="#EB0C0C" stroke="#EB0C0C" stroke-width="0.2"/>
<path d="M140.093 43.4127L140.094 43.4136C140.48 44.0852 140.975 44.5774 141.583 44.8845C142.185 45.1886 142.828 45.3407 143.512 45.3407C144.187 45.3407 144.826 45.2052 145.427 44.9339C146.038 44.6604 146.535 44.2336 146.917 43.6559L146.917 43.6555C147.301 43.0666 147.49 42.3322 147.49 41.4585C147.49 40.6046 147.311 39.8952 146.945 39.3375C146.59 38.7872 146.153 38.3879 145.632 38.145C145.126 37.906 144.629 37.7848 144.142 37.7848C143.857 37.7848 143.577 37.8172 143.304 37.882C143.098 37.9261 142.887 37.9989 142.67 38.0996C142.938 37.4133 143.354 36.8171 143.921 36.3101C144.56 35.7447 145.286 35.3348 146.101 35.0799C146.194 35.0527 146.281 35.0085 146.326 34.9304C146.371 34.8555 146.386 34.7506 146.386 34.6334C146.386 34.4803 146.349 34.2898 146.28 34.0652C146.215 33.8284 146.118 33.6188 145.987 33.4379C145.85 33.242 145.674 33.1305 145.46 33.1305C145.281 33.1305 145.029 33.1917 144.71 33.3045C144.388 33.4182 143.99 33.588 143.515 33.8131C142.556 34.2645 141.653 35.0642 140.806 36.204C139.948 37.3515 139.524 38.898 139.524 40.8329C139.524 41.868 139.712 42.7299 140.093 43.4127ZM144.457 40.3679L144.457 40.3679L144.458 40.3687C144.703 40.6425 144.831 41.0237 144.831 41.5248C144.831 41.8471 144.772 42.1324 144.655 42.3827C144.538 42.6273 144.379 42.8186 144.178 42.9595C143.984 43.0932 143.772 43.1596 143.539 43.1596C143.145 43.1596 142.828 43.0013 142.58 42.6782C142.34 42.3503 142.211 41.8113 142.211 41.0414C142.211 40.7239 142.216 40.4852 142.225 40.3237C142.655 40.0763 143.055 39.9565 143.428 39.9565C143.882 39.9565 144.22 40.097 144.457 40.3679Z" fill="#EB0C0C" stroke="#EB0C0C" stroke-width="0.2"/>
<path d="M131.385 44.732L131.385 44.7323C131.798 44.9466 132.288 45.101 132.853 45.1971C133.414 45.2926 133.936 45.3407 134.419 45.3407C135.162 45.3407 135.824 45.1958 136.403 44.9034L136.404 44.903C136.983 44.6038 137.436 44.1767 137.762 43.623L137.762 43.6225C138.088 43.0614 138.249 42.4052 138.249 41.6575C138.249 40.9342 138.084 40.2995 137.752 39.757C137.441 39.2451 136.99 38.862 136.403 38.6068C136.834 38.3963 137.178 38.0878 137.435 37.6825C137.725 37.2288 137.868 36.7074 137.868 36.1216C137.868 35.5056 137.725 34.9654 137.436 34.505C137.153 34.0384 136.744 33.6815 136.215 33.4338C135.692 33.1862 135.083 33.0641 134.391 33.0641C133.817 33.0641 133.281 33.1119 132.786 33.208C132.296 33.2979 131.894 33.437 131.583 33.6288C131.266 33.8244 131.09 34.08 131.09 34.3964C131.09 34.5675 131.142 34.7592 131.238 34.9689C131.334 35.1786 131.451 35.3636 131.587 35.5231L131.587 35.5231L131.589 35.5247C131.723 35.6747 131.866 35.7761 132.016 35.7761C132.077 35.7761 132.141 35.7585 132.204 35.73C132.269 35.7034 132.336 35.6706 132.406 35.6319C132.629 35.5211 132.855 35.432 133.083 35.3644L133.083 35.3644L133.086 35.3636C133.307 35.2922 133.599 35.2547 133.964 35.2547C134.378 35.2547 134.675 35.3719 134.873 35.5914L134.873 35.5915L134.875 35.5934C135.082 35.8102 135.191 36.1146 135.191 36.5197C135.191 36.9159 135.051 37.225 134.772 37.4572C134.492 37.6907 134.103 37.8132 133.593 37.8132H133.278C133.072 37.8132 132.911 37.8989 132.811 38.0717L132.811 38.0717L132.81 38.0729C132.723 38.2288 132.686 38.462 132.686 38.7568V39.0697C132.686 39.3645 132.723 39.5977 132.81 39.7536L132.81 39.7536L132.812 39.7566C132.913 39.9231 133.074 40.0038 133.278 40.0038H133.741C134.411 40.0038 134.872 40.1475 135.147 40.4121L135.148 40.4128C135.425 40.6721 135.571 41.0679 135.571 41.6196C135.571 42.1177 135.429 42.4937 135.156 42.7611C134.882 43.0239 134.513 43.1595 134.038 43.1595C133.651 43.1595 133.309 43.1131 133.011 43.0221C132.713 42.9227 132.418 42.7984 132.126 42.6491C132.019 42.5945 131.928 42.5524 131.852 42.5237C131.778 42.4961 131.71 42.477 131.654 42.477C131.489 42.477 131.339 42.591 131.204 42.7614L131.204 42.7618C131.074 42.9277 130.965 43.119 130.875 43.3349C130.787 43.546 130.737 43.7223 130.737 43.8567C130.737 44.2245 130.971 44.5143 131.385 44.732Z" fill="#EB0C0C" stroke="#EB0C0C" stroke-width="0.2"/>
</svg>